<svg id="baseline-settings-20px" xmlns="http://www.w3.org/2000/svg" viewBox="0 0 57 57">
  <defs>
    <style>
      .cls-1 {
        fill: none;
      }

      .cls-2 {
        fill: #ff516e;
      }
    </style>
  </defs>
  <path id="Path_3" data-name="Path 3" class="cls-1" d="M0,0H57V57H0Z"/>
  <path id="Path_4" data-name="Path 4" class="cls-2" d="M48.6,31.084a21.2,21.2,0,0,0,.169-2.584,16.024,16.024,0,0,0-.2-2.584l5.71-4.372a1.351,1.351,0,0,0,.338-1.689l-5.406-9.176a1.387,1.387,0,0,0-1.656-.6l-6.723,2.65a19.9,19.9,0,0,0-4.561-2.584L35.257,3.126A1.341,1.341,0,0,0,33.906,2H23.094a1.307,1.307,0,0,0-1.318,1.126l-1.014,7.022A20.427,20.427,0,0,0,16.2,12.732l-6.723-2.65a1.348,1.348,0,0,0-1.656.6L2.417,19.854a1.268,1.268,0,0,0,.338,1.689l5.71,4.372a15.31,15.31,0,0,0-.034,5.167l-5.71,4.373a1.351,1.351,0,0,0-.338,1.689l5.406,9.176a1.387,1.387,0,0,0,1.656.6l6.723-2.65a19.9,19.9,0,0,0,4.561,2.584l1.014,7.022A1.367,1.367,0,0,0,23.094,55H33.906a1.283,1.283,0,0,0,1.318-1.126l1.014-7.022A20.427,20.427,0,0,0,40.8,44.267l6.723,2.65a1.348,1.348,0,0,0,1.656-.6l5.406-9.176a1.268,1.268,0,0,0-.338-1.689L48.6,31.084ZM28.5,38.438A9.939,9.939,0,1,1,38.636,28.5,10.068,10.068,0,0,1,28.5,38.438Z" transform="translate(0 0)"/>
</svg>
